<?xml version="1.0" encoding="utf-8"?>
<svg width="800px" height="800px" viewBox="0 0 27 24" xmlns="http://www.w3.org/2000/svg">
  <path
    d="M9 21C7.89543 21 7 20.1046 7 19V15.3255C7 14.8363 7 14.5917 6.94472 14.3615C6.89568 14.1575 6.81493 13.9624 6.70533 13.7834C6.58163 13.5816 6.40857 13.4086 6.06244 13.0627L5 12L6.06244 10.9373C6.40857 10.5914 6.58163 10.4184 6.70533 10.2166C6.81493 10.0376 6.89568 9.84254 6.94472 9.63846C7 9.40829 7 9.1637 7 8.67452V5C7 3.89543 7.89543 3 9 3"
    stroke="#000000" stroke-width="2" stroke-linecap="round" stroke-linejoin="round" />
  <path
    d="M18 21C19.1046 21 20 20.1046 20 19V15.3255C20 14.8363 20 14.5917 20.0553 14.3615C20.1043 14.1575 20.1851 13.9624 20.2947 13.7834C20.4184 13.5816 20.5914 13.4086 20.9373 13.0627L22 12L20.9373 10.9373C20.5914 10.5914 20.4184 10.4184 20.2947 10.2166C20.1851 10.0376 20.1043 9.84254 20.0553 9.63846C20 9.40829 20 9.1637 20 8.67452V5C20 3.89543 19.1046 3 18 3"
    stroke="#000000" stroke-width="2" stroke-linecap="round" stroke-linejoin="round" />
</svg>