<svg xmlns="http://www.w3.org/2000/svg" viewBox="0 0 512 512">
  <path d="M50 0C22.4 0 0 22.4 0 50v412c0 27.6 22.4 50 50 50h412c27.6 0 50-22.4 50-50V50c0-27.6-22.4-50-50-50H50zm362.576 235.584c13.008 3.248 22.912 9.088 32.08 18.496 4.672 4.992 11.664 14.16 12.256 16.416 0.16 0.672-22.08 15.584-35.584 23.92-0.496 0.336-2.496-1.744-4.672-5.008-6.576-9.584-13.504-13.744-24.08-14.496-15.504-1.008-25.504 7.088-25.424 20.672-0.08 3.328 0.672 6.672 2.16 9.584 3.424 7.088 9.84 11.328 29.664 19.92 36.672 15.744 52.336 26.16 62.08 40.912 10.912 16.496 13.328 42.832 6 62.496-8.16 21.248-28.336 35.744-56.672 40.496-8.752 1.584-29.584 1.328-39.008-0.416-20.576-3.664-40.08-13.84-52.08-27.168-4.752-5.168-13.92-18.752-13.328-19.664 0.256-0.336 2.336-1.664 4.672-3.008 2.336-1.344 10.912-6.336 19.008-11.008l14.752-8.576 3.088 4.576c4.336 6.576 13.744 15.584 19.424 18.576 16.336 8.672 38.752 7.424 49.84-2.496 4.496-3.744 7.008-9.504 6.672-15.328 0-5.92-0.752-8.576-3.84-13.008-4-5.664-12.08-10.496-35.168-20.496-26.416-11.424-37.84-18.416-48.16-29.664-6.496-7.424-11.328-16.16-14.08-25.584-1.92-7.248-2.416-25.424-0.912-32.672 5.424-25.584 24.752-43.328 52.496-48.576 9.008-1.744 30-1.088 38.832 1.088zM292.416 257.008l0.16 20.912h-66.672v189.424h-47.168V277.92h-66.576v-20.496c0-11.424 0.256-20.912 0.576-21.168 0.256-0.336 40.752-0.496 89.92-0.416l89.504 0.256 0.256 20.912z" fill="currentColor"/>
</svg>
